<svg width="568" height="1079" viewBox="0 0 568 1079" fill="none" xmlns="http://www.w3.org/2000/svg">
<g clip-path="url(#clip0_425_997)">
<rect width="568" height="1079" fill="#FAF0CA"/>
<path d="M168 197C168 85.0737 0 149.402 0 0H568V615.5C568 656.5 431.5 660 395.5 598.5C363.733 544.231 402.75 359.999 314 358C225.25 356.001 168 308.926 168 197Z" fill="#F4D35E"/>
<path d="M228.72 674C118.863 665.881 185.153 397 0 397V1079H568V561.595C568 545 502.942 488.62 444.366 561.595C400.295 616.5 445.812 841.952 368.665 839C291.518 836.048 338.578 682.119 228.72 674Z" fill="#EE964B"/>
<path d="M117.788 745.434C117.788 736.804 135.909 643 0 643V890.269V1079H343V950.5C343 823.48 297.188 822.579 217.455 823.48C117.788 824.605 117.788 754.064 117.788 745.434Z" fill="#F4D35E"/>
<path d="M388.536 114.391C388.536 23.6777 288 126.998 288 0H568V196.801H480.024C462.933 196.801 388.536 205.104 388.536 114.391Z" fill="#EE964B"/>
</g>
<defs>
<clipPath id="clip0_425_997">
<rect width="568" height="1079" fill="white"/>
</clipPath>
</defs>
</svg>
