<svg width="190" height="144" viewBox="0 0 190 144" fill="none" xmlns="http://www.w3.org/2000/svg">
<path d="M176.856 62.7191C181.048 68.2014 181.048 75.6026 176.856 81.0761C163.655 98.3102 131.981 133.795 95.0013 133.795C58.022 133.795 26.3481 98.3102 13.1462 81.0761C11.107 78.4511 10 75.2217 10 71.8976C10 68.5735 11.107 65.3441 13.1462 62.7191C26.3481 45.485 58.022 10 95.0013 10C131.981 10 163.655 45.485 176.856 62.7191V62.7191Z" fill="white" stroke="black" stroke-width="18" stroke-linecap="round" stroke-linejoin="round"/>
<path d="M95.0012 98.4251C109.652 98.4251 121.529 86.5484 121.529 71.8976C121.529 57.2468 109.652 45.3701 95.0012 45.3701C80.3505 45.3701 68.4737 57.2468 68.4737 71.8976C68.4737 86.5484 80.3505 98.4251 95.0012 98.4251Z" fill="#030303" stroke="black" stroke-width="18" stroke-linecap="round" stroke-linejoin="round"/>
<circle cx="115.5" cy="55.5" r="13.5" fill="white"/>
</svg>
